HIERARCHY
ROOT SpineBase
{
  OFFSET 0.000000 0.000000 0.000000
  CHANNELS 6 Xposition Yposition Zposition Zrotation Xrotation Yrotation
  JOINT SpineMid
  {
    OFFSET -0.000000 33.620357 0.000000
    CHANNELS 3 Zrotation Xrotation Yrotation
    JOINT SpineShoulder
    {
      OFFSET -1.046760 24.490750 -1.036984
      CHANNELS 3 Zrotation Xrotation Yrotation
      JOINT Neck
      {
        OFFSET -0.411230 8.071549 -0.703731
        CHANNELS 3 Zrotation Xrotation Yrotation
        JOINT Head
        {
          OFFSET -2.373437 10.821531 7.099882
          CHANNELS 3 Zrotation Xrotation Yrotation
          End Site
          {
            OFFSET 0 0 0
          }
        }
      }
      JOINT ShoulderLeft
      {
        OFFSET -7.280074 0.433246 13.272736
        CHANNELS 3 Zrotation Xrotation Yrotation
        JOINT ElbowLeft
        {
          OFFSET 16.947588 -20.441526 5.149182
          CHANNELS 3 Zrotation Xrotation Yrotation
          JOINT WristLeft
          {
            OFFSET 15.285273 -12.956006 -19.926458
            CHANNELS 3 Zrotation Xrotation Yrotation
            JOINT HandLeft
            {
              OFFSET 5.650309 -5.574642 -4.639945
              CHANNELS 3 Zrotation Xrotation Yrotation
              JOINT HandTipLeft
              {
                OFFSET 2.746107 -3.714910 -0.103033
                CHANNELS 3 Zrotation Xrotation Yrotation
                End Site
                {
                  OFFSET 0 0 0
                }
              }
              JOINT ThumbLeft
              {
                OFFSET -3.273070 2.051953 -4.343104
                CHANNELS 3 Zrotation Xrotation Yrotation
                End Site
                {
                  OFFSET 0 0 0
                }
              }
            }
          }
        }
      }
      JOINT ShoulderRight
      {
        OFFSET 1.828879 -4.712828 -12.623561
        CHANNELS 3 Zrotation Xrotation Yrotation
        JOINT ElbowRight
        {
          OFFSET 0.844622 -26.771769 -8.369505
          CHANNELS 3 Zrotation Xrotation Yrotation
          JOINT WristRight
          {
            OFFSET -2.848362 -20.004103 -5.815722
            CHANNELS 3 Zrotation Xrotation Yrotation
            JOINT HandRight
            {
              OFFSET -0.051377 -7.845064 -0.097320
              CHANNELS 3 Zrotation Xrotation Yrotation
              JOINT HandTipRight
              {
                OFFSET -0.818146 -8.311640 0.833335
                CHANNELS 3 Zrotation Xrotation Yrotation
                End Site
                {
                  OFFSET 0 0 0
                }
              }
              JOINT ThumbRight
              {
                OFFSET 1.473364 0.080992 6.008544
                CHANNELS 3 Zrotation Xrotation Yrotation
                End Site
                {
                  OFFSET 0 0 0
                }
              }
            }
          }
        }
      }
    }
  }
  JOINT HipLeft
  {
    OFFSET -2.678936 -0.555616 1.022871
    CHANNELS 3 Zrotation Xrotation Yrotation
    JOINT KneeLeft
    {
      OFFSET 12.012723 -39.232368 0.635415
      CHANNELS 3 Zrotation Xrotation Yrotation
      JOINT AnkleLeft
      {
        OFFSET 1.380067 -29.588818 0.149337
        CHANNELS 3 Zrotation Xrotation Yrotation
        JOINT FootLeft
        {
          OFFSET -3.933531 0.402615 -15.823849
          CHANNELS 3 Zrotation Xrotation Yrotation
          End Site
          {
            OFFSET 0 0 0
          }
        }
      }
    }
  }
  JOINT HipRight
  {
    OFFSET 1.772441 2.885721 -8.434565
    CHANNELS 3 Zrotation Xrotation Yrotation
    JOINT KneeRight
    {
      OFFSET -7.210724 -40.272530 -6.751264
      CHANNELS 3 Zrotation Xrotation Yrotation
      JOINT AnkleRight
      {
        OFFSET 8.063553 -32.754460 -1.206499
        CHANNELS 3 Zrotation Xrotation Yrotation
        JOINT FootRight
        {
          OFFSET -9.489595 -3.396518 -6.534388
          CHANNELS 3 Zrotation Xrotation Yrotation
          End Site
          {
            OFFSET 0 0 0
          }
        }
      }
    }
  }
}
MOTION
Frames: 6
Frame Time: 0.033333
30.736265 73.295162 280.037612 0.123148 -4.603026 55.907857 -1.328657 2.018471 -56.074840 0.028184 0.822177 -0.080299 0.544337 -6.885832 -1.000335 0.000000 0.000000 0.000000 -34.274082 6.336204 -5.018510 3.051259 -43.309854 37.891107 6.275675 29.134320 27.940309 40.439152 -3.737170 -29.064183 0.000000 0.000000 0.000000 0.000000 0.000000 0.000000 -0.765590 1.404208 1.326691 -33.278003 -30.251382 5.591282 -34.423180 -8.392944 -11.965294 17.771341 14.303177 -3.945794 0.000000 0.000000 0.000000 0.000000 0.000000 0.000000 -34.161034 19.809448 -55.743933 61.369093 77.305289 -19.612843 153.975870 -31.242894 165.542687 0.000000 0.000000 0.000000 5.858146 2.059510 -56.613662 2.809695 -7.025583 -0.698957 -7.714631 9.665787 -3.190343 0.000000 0.000000 0.000000
29.578324 72.502061 282.329804 0.139929 -5.212149 53.269605 -1.404808 2.016458 -53.444145 -0.042328 0.818267 -0.088543 2.982735 -6.639828 -2.634135 0.000000 0.000000 0.000000 -38.137759 9.567053 -0.975965 12.649030 -30.156202 38.516063 32.810912 35.635978 7.956075 12.055589 0.137656 -15.219880 0.000000 0.000000 0.000000 0.000000 0.000000 0.000000 1.148987 2.678026 0.730448 -35.740673 -30.155195 5.909992 -36.258294 -14.863913 -17.538571 17.224642 19.345797 -2.409322 0.000000 0.000000 0.000000 0.000000 0.000000 0.000000 -32.559745 20.009622 -52.280647 43.550486 45.073037 -3.096555 139.582971 -51.683969 144.821486 0.000000 0.000000 0.000000 9.821944 5.199405 -55.127595 3.360067 -11.220241 0.456299 -5.838687 8.554627 -5.041177 0.000000 0.000000 0.000000
28.341514 71.677771 284.424716 0.264015 -5.272468 51.834168 -1.384571 2.054382 -51.994798 -0.124575 0.728085 -0.093456 4.796329 -6.675228 -3.894800 0.000000 0.000000 0.000000 -43.945853 11.491617 1.427202 22.684714 -19.995911 40.337763 30.451294 28.626567 2.815964 12.668212 -0.791877 -8.536702 0.000000 0.000000 0.000000 0.000000 0.000000 0.000000 3.513705 3.371097 -0.153775 -39.096235 -29.151962 6.587052 -36.871688 -20.376701 -23.496036 12.520987 24.225292 1.739973 0.000000 0.000000 0.000000 0.000000 0.000000 0.000000 -31.732349 20.973467 -49.904675 40.716612 20.592640 -1.191452 73.790835 -51.549479 92.579283 0.000000 0.000000 0.000000 12.835583 7.409361 -54.825816 3.821888 -14.591549 1.576148 -6.230008 8.642741 -6.138700 0.000000 0.000000 0.000000
26.916292 70.850948 286.535127 0.172233 -5.143179 50.612605 -1.222044 2.064981 -50.774103 -0.206492 0.507528 -0.110025 7.143475 -6.410152 -5.323735 0.000000 0.000000 0.000000 -50.315841 12.590410 2.701710 30.944982 -13.995030 43.328855 17.794781 22.481965 5.179296 22.662751 -1.711382 -7.315779 0.000000 0.000000 0.000000 0.000000 0.000000 0.000000 6.654837 4.528977 -1.314861 -44.646316 -28.556176 6.952877 -34.220234 -25.675011 -30.352957 4.182816 27.675110 8.114611 0.000000 0.000000 0.000000 0.000000 0.000000 0.000000 -31.321287 21.654890 -48.022840 39.947357 3.480977 -0.886981 25.992777 -17.641528 60.686284 0.000000 0.000000 0.000000 15.917310 8.738723 -54.801574 3.930836 -17.404432 2.809025 -6.897444 8.388797 -6.813237 0.000000 0.000000 0.000000
25.177637 70.297308 288.540911 0.110571 -4.306212 50.498541 -1.094968 2.078461 -50.644802 -0.296446 0.158927 -0.133494 9.962720 -6.233090 -6.904781 0.000000 0.000000 0.000000 -55.460493 13.444941 4.236405 35.510093 -12.943365 46.946715 2.405383 15.710173 5.764943 33.843503 4.696734 -7.039628 0.000000 0.000000 0.000000 0.000000 0.000000 0.000000 10.373204 5.223998 -2.695984 -50.510161 -25.996274 7.686131 -30.460956 -31.235952 -36.670159 -7.247869 29.053031 16.243944 0.000000 0.000000 0.000000 0.000000 0.000000 0.000000 -30.609950 22.193178 -47.590014 39.733346 -7.659137 -0.839893 15.725710 -2.624651 46.686704 0.000000 0.000000 0.000000 17.167784 7.689325 -55.132121 3.275198 -16.978671 3.689169 -7.607738 7.107035 -7.962531 0.000000 0.000000 0.000000
23.557263 69.997076 290.003904 0.177057 -2.860612 50.502419 -0.866073 2.084720 -50.607408 -0.383598 -0.296051 -0.154032 11.081911 -7.622970 -7.601982 0.000000 0.000000 0.000000 -66.305336 14.048149 4.294532 44.607838 -14.623661 53.404676 -5.590269 13.442387 5.389005 46.277652 -4.546092 -12.899294 0.000000 0.000000 0.000000 0.000000 0.000000 0.000000 14.049173 5.040571 -4.033402 -57.622113 -24.557590 8.242441 -23.093504 -33.756900 -39.105305 -21.196430 26.065564 24.249509 0.000000 0.000000 0.000000 0.000000 0.000000 0.000000 -31.353248 21.751751 -47.893839 40.566580 -13.010363 -0.883998 9.996506 3.702649 34.019263 0.000000 0.000000 0.000000 16.705589 5.084632 -54.937094 1.817565 -14.032505 4.173988 -8.210236 4.880801 -8.949594 0.000000 0.000000 0.000000
